<svg width="576" height="576" xmlns="http://www.w3.org/2000/svg">

 <g>
  <title>Layer 1</title>
  <rect id="svg_4" height="717.99998" width="801.99998" y="-80.00001" x="-124.00002" stroke-width="0" stroke="#000" fill="#1c1e4b"/>
  <path stroke="#000" stroke-width="20" id="svg_1" d="m44.21494,100.79586l0,0c0,-31.60436 25.13734,-57.22475 56.14582,-57.22475l25.52084,0l0,0l122.50001,0l229.68745,0c14.89084,0 29.17174,6.02901 39.70115,16.76074c10.52934,10.73173 16.44471,25.28708 16.44471,40.46401l0,143.0619l0,0l0,85.83712l0,0c0,31.60438 -25.13733,57.22475 -56.14584,57.22475l-229.68745,0l-160.03114,145.50925l37.53114,-145.50925l-25.52084,0c-31.00848,0 -56.14582,-25.62038 -56.14582,-57.22475l0,0l0,-85.83712l0,0l-0.00002,-143.0619z" fill="#fff"/>
  <text transform="matrix(2.34478 0 0 2.34478 -230.203 -4.43426)" stroke="#000" xml:space="preserve" text-anchor="start" font-family="Noto Sans JP" font-size="250" id="svg_3" y="103.0204" x="128.63867" stroke-width="0" fill="#000000">...</text>
 </g>
</svg>